<svg width="1221" height="650" xmlns="http://www.w3.org/2000/svg" xmlns:xlink="http://www.w3.org/1999/xlink" overflow="hidden"><defs><clipPath id="clip0"><rect x="5" y="50" width="1221" height="650"/></clipPath></defs><g clip-path="url(#clip0)" transform="translate(-5 -50)"><path d="M391 382 1178.71 382" stroke="#301901" stroke-width="8" stroke-miterlimit="8" stroke-dasharray="32 24" fill="none" fill-rule="evenodd"/><path d="M1117.27 142.354C1058.75 201.656 750.406 245.136 389.334 245" stroke="#301901" stroke-width="8" stroke-miterlimit="8" stroke-dasharray="32 24" fill="none" fill-rule="evenodd"/><path d="M663 397.25 506.691 397.25 506.691 412 440 382.5 506.691 353 506.691 367.75 663 367.75Z" stroke="#301901" stroke-width="8" stroke-miterlimit="8" fill="#301901" fill-rule="evenodd"/><text fill="#301901" font-family="Times New Roman,Times New Roman_MSFontService,sans-serif" font-weight="700" font-size="80" transform="translate(568.714 328)">µ</text><path d="M6 213 364.892 213" stroke="#301901" stroke-width="8" stroke-miterlimit="8" fill="none" fill-rule="evenodd"/><path d="M365 213 365 540.615" stroke="#301901" stroke-width="8" stroke-miterlimit="8" fill="none" fill-rule="evenodd"/><path d="M6 541 364.892 541" stroke="#301901" stroke-width="8" stroke-miterlimit="8" fill="none" fill-rule="evenodd"/><text fill="#301901" font-family="Times New Roman,Times New Roman_MSFontService,sans-serif" font-weight="700" font-size="80" transform="translate(154.615 405)">N</text><path d="M769.144 689.999C726.618 690.323 692.08 550.227 692 377.086 691.92 203.946 726.33 63.3244 768.856 63.0004 769.866 62.9927 770.876 63.066 771.886 63.2201" stroke="#301901" stroke-width="16" stroke-miterlimit="8" fill="none" fill-rule="evenodd"/><path d="M692 375.5C692 202.359 728.713 62 774 62 819.287 62 856 202.359 856 375.5 856 548.641 819.287 689 774 689 728.713 689 692 548.641 692 375.5Z" stroke="#301901" stroke-width="8" stroke-miterlimit="8" fill="none" fill-rule="evenodd"/><path d="M7.79331-1.80673 11.632 14.7513-3.95464 18.3648-7.79331 1.80673ZM25.4119 3.34455 12.8723 55.5246-21.348 14.1849Z" fill="#301901" transform="matrix(1 0 0 -1 703 209.525)"/><text fill="#301901" font-family="Times New Roman,Times New Roman_MSFontService,sans-serif" font-weight="700" font-size="80" transform="translate(643.238 172)">I</text><path d="M779 374.5C779 349.923 799.371 330 824.5 330 849.629 330 870 349.923 870 374.5 870 399.077 849.629 419 824.5 419 799.371 419 779 399.077 779 374.5Z" stroke="#301901" stroke-width="8" stroke-miterlimit="8" fill="#F5E283" fill-rule="evenodd"/><path d="M810 375 826 375 826 359 826 359 826 375 842 375 842 376 826 376 826 392 826 392 826 376 810 376Z" stroke="#301901" stroke-width="8" stroke-miterlimit="8" fill="#F5E283" fill-rule="evenodd"/><path d="M877.144 685.999C834.618 686.323 800.08 546.227 800 373.086 799.92 199.946 834.33 59.3244 876.856 59.0004 877.866 58.9927 878.876 59.066 879.886 59.2201" stroke="#301901" stroke-width="16" stroke-miterlimit="8" fill="none" fill-rule="evenodd"/><path d="M809.915 478.836 814.759 511.765 798.929 514.094 794.085 481.164ZM829.424 501.521 812.666 552.503 781.935 508.508Z" fill="#301901"/><path d="M802 374C802 200.583 838.713 60 884 60 929.287 60 966 200.583 966 374 966 547.417 929.287 688 884 688 838.713 688 802 547.417 802 374Z" stroke="#301901" stroke-width="8" stroke-miterlimit="8" fill="none" fill-rule="evenodd"/><path d="M774 194.5C774 169.923 794.371 150 819.5 150 844.629 150 865 169.923 865 194.5 865 219.077 844.629 239 819.5 239 794.371 239 774 219.077 774 194.5Z" stroke="#301901" stroke-width="8" stroke-miterlimit="8" fill="#F5E283" fill-rule="evenodd"/><rect x="798.555" y="190.472" width="41.8893" height="7.05597" stroke="#301901" stroke-width="8" stroke-miterlimit="8" fill="#F5E283"/><path d="M993 366.75 1149.31 366.75 1149.31 352 1216 381.5 1149.31 411 1149.31 396.25 993 396.25Z" stroke="#301901" stroke-width="8" stroke-miterlimit="8" fill="#301901" fill-rule="evenodd"/><text fill="#301901" font-family="Times New Roman,Times New Roman_MSFontService,sans-serif" font-weight="700" font-size="80" transform="translate(1051.77 331)">µ</text><path d="M1462.27 142.354C1403.75 201.656 1095.41 245.136 734.334 245" stroke="#301901" stroke-width="8" stroke-miterlimit="8" stroke-dasharray="32 24" fill="none" fill-rule="evenodd" transform="matrix(1 0 0 -1 -345 743)"/><path d="M658 525.5C658 500.923 678.371 481 703.5 481 728.629 481 749 500.923 749 525.5 749 550.077 728.629 570 703.5 570 678.371 570 658 550.077 658 525.5Z" stroke="#301901" stroke-width="8" stroke-miterlimit="8" fill="#F5E283" fill-rule="evenodd"/><rect x="682.555" y="521.854" width="41.8893" height="7.29114" stroke="#301901" stroke-width="8" stroke-miterlimit="8" fill="#F5E283"/><text fill="#301901" font-family="Times New Roman,Times New Roman_MSFontService,sans-serif" font-weight="700" font-size="80" transform="translate(461.572 208)">B</text></g></svg>