<svg width="1198" height="421" xmlns="http://www.w3.org/2000/svg" xmlns:xlink="http://www.w3.org/1999/xlink" overflow="hidden"><defs><clipPath id="clip0"><rect x="23" y="136" width="1198" height="421"/></clipPath></defs><g clip-path="url(#clip0)" transform="translate(-23 -136)"><path d="M423 360.5C423 254.185 509.633 168 616.5 168 723.367 168 810 254.185 810 360.5 810 466.815 723.367 553 616.5 553 509.633 553 423 466.815 423 360.5ZM519.25 360.5C519.25 413.658 562.791 456.75 616.5 456.75 670.21 456.75 713.751 413.658 713.751 360.5 713.751 307.342 670.21 264.25 616.5 264.25 562.791 264.25 519.25 307.342 519.25 360.5Z" stroke="#301901" stroke-width="8" stroke-miterlimit="8" fill="none" fill-rule="evenodd"/><path d="M458 224 549.826 303.304" stroke="#301901" stroke-width="8" stroke-miterlimit="8" fill="none" fill-rule="evenodd"/><path d="M416 279 536.457 327.87" stroke="#301901" stroke-width="8" stroke-miterlimit="8" fill="none" fill-rule="evenodd"/><path d="M400 361 528.456 361" stroke="#301901" stroke-width="8" stroke-miterlimit="8" fill="none" fill-rule="evenodd"/><path d="M0 0 77.7935 99.489" stroke="#301901" stroke-width="8" stroke-miterlimit="8" fill="none" fill-rule="evenodd" transform="matrix(1 0 0 -1 478 518.489)"/><path d="M0 0 114.413 56.9347" stroke="#301901" stroke-width="8" stroke-miterlimit="8" fill="none" fill-rule="evenodd" transform="matrix(1 0 0 -1 419 445.935)"/><path d="M0 0 91.8261 79.3044" stroke="#301901" stroke-width="8" stroke-miterlimit="8" fill="none" fill-rule="evenodd" transform="matrix(-1 0 0 1 766.826 220)"/><path d="M0 0 120.457 48.8695" stroke="#301901" stroke-width="8" stroke-miterlimit="8" fill="none" fill-rule="evenodd" transform="matrix(-1 0 0 1 816.457 279)"/><path d="M0 0 128.456 0.000104987" stroke="#301901" stroke-width="8" stroke-miterlimit="8" fill="none" fill-rule="evenodd" transform="matrix(-1 0 0 1 831.456 360)"/><path d="M759.994 514.33 673 419" stroke="#301901" stroke-width="8" stroke-miterlimit="8" fill="none" fill-rule="evenodd"/><path d="M808.413 450.935 694 394" stroke="#301901" stroke-width="8" stroke-miterlimit="8" fill="none" fill-rule="evenodd"/><path d="M70 208 241.13 208" stroke="#301901" stroke-width="8" stroke-miterlimit="8" fill="none" fill-rule="evenodd"/><path d="M362 531 528.956 531" stroke="#301901" stroke-width="8" stroke-miterlimit="8" fill="none" fill-rule="evenodd"/><path d="M70 205 70.0001 288.932" stroke="#301901" stroke-width="8" stroke-miterlimit="8" fill="none" fill-rule="evenodd"/><path d="M364 247 364 528.991" stroke="#301901" stroke-width="8" stroke-miterlimit="8" fill="none" fill-rule="evenodd"/><path d="M241 251 364.13 251" stroke="#301901" stroke-width="8" stroke-miterlimit="8" fill="none" fill-rule="evenodd"/><path d="M241 247 241 288.966" stroke="#301901" stroke-width="8" stroke-miterlimit="8" fill="none" fill-rule="evenodd"/><rect x="28" y="289" width="265" height="169" stroke="#301901" stroke-width="8" stroke-miterlimit="8" fill="none"/><path d="M54 331 70 331 70 315 70 315 70 331 86 331 86 332 70 332 70 348 70 348 70 332 54 332Z" stroke="#301901" stroke-width="8" stroke-miterlimit="8" fill="#F5E283" fill-rule="evenodd"/><rect x="215.555" y="327.854" width="41.8893" height="7.29117" stroke="#301901" stroke-width="8" stroke-miterlimit="8" fill="#F5E283"/><path d="M0 0 442.711 0.000104987" stroke="#301901" stroke-width="8" stroke-miterlimit="8" fill="none" fill-rule="evenodd" transform="matrix(-1 0 0 1 1174.71 203)"/><path d="M0 0 166.956 0.000104987" stroke="#301901" stroke-width="8" stroke-miterlimit="8" fill="none" fill-rule="evenodd" transform="matrix(-1 0 0 1 881.956 526)"/><path d="M0 0 0.000104987 83.9315" stroke="#301901" stroke-width="8" stroke-miterlimit="8" fill="none" fill-rule="evenodd" transform="matrix(-1 0 0 1 1175 200)"/><path d="M0 0 0.000104987 281.991" stroke="#301901" stroke-width="8" stroke-miterlimit="8" fill="none" fill-rule="evenodd" transform="matrix(-1 0 0 1 880 242)"/><path d="M0 0 123.131 0.000104987" stroke="#301901" stroke-width="8" stroke-miterlimit="8" fill="none" fill-rule="evenodd" transform="matrix(-1 0 0 1 1003.13 246)"/><path d="M0 0 0.000104987 41.9658" stroke="#301901" stroke-width="8" stroke-miterlimit="8" fill="none" fill-rule="evenodd" transform="matrix(-1 0 0 1 1003 242)"/><rect x="0" y="0" width="265" height="169" stroke="#301901" stroke-width="8" stroke-miterlimit="8" fill="none" transform="matrix(-1 0 0 1 1216 284)"/><path d="M964.605 388.9C998.003 313.96 1077.86 284.37 1142.97 322.809 1166.07 336.443 1185.17 357.585 1197.92 383.608L1135.09 424.378C1121.05 385.39 1086.13 369.06 1057.08 387.905 1044.57 396.023 1034.63 409.861 1029.03 426.936Z" stroke="#301901" stroke-width="8" stroke-miterlimit="8" fill="none" fill-rule="evenodd"/><path d="M4-8.55425e-06 4.00006 29.0923-3.99994 29.0923-4 8.55425e-06ZM12.0001 25.0923 0.000104987 49.0923-11.9999 25.0923Z" fill="#301901" transform="matrix(1 0 0 -1 1084 377.092)"/><path d="M0 0 137.451 1.32546" stroke="#301901" stroke-width="8" stroke-miterlimit="8" fill="none" fill-rule="evenodd" transform="matrix(1 0 0 -1 364 208.325)"/><path d="M0 0 109.955 67.5108" stroke="#301901" stroke-width="8" stroke-miterlimit="8" fill="none" fill-rule="evenodd" transform="matrix(1 0 0 -1 236 208.511)"/></g></svg>