<svg width="659" height="614" xmlns="http://www.w3.org/2000/svg" xmlns:xlink="http://www.w3.org/1999/xlink" overflow="hidden"><defs><clipPath id="clip0"><rect x="290" y="38" width="659" height="614"/></clipPath></defs><g clip-path="url(#clip0)" transform="translate(-290 -38)"><path d="M424 344 424 648" stroke="#301901" stroke-width="8" stroke-miterlimit="8" fill="none" fill-rule="evenodd"/><path d="M0 0 366.608 0.000104987" stroke="#301901" stroke-width="8" stroke-miterlimit="8" fill="none" fill-rule="evenodd" transform="matrix(-1 0 0 1 788.609 648)"/><path d="M788 344 788 648" stroke="#301901" stroke-width="8" stroke-miterlimit="8" fill="none" fill-rule="evenodd"/><path d="M500.188 396.643C484.126 414.878 454.009 418.402 432.919 404.516 429.496 402.263 426.439 399.622 423.831 396.664" stroke="#301901" stroke-width="8" stroke-miterlimit="8" fill="none" fill-rule="evenodd"/><path d="M569.188 396.643C553.126 414.878 523.009 418.402 501.919 404.516 498.496 402.263 495.439 399.622 492.831 396.664" stroke="#301901" stroke-width="8" stroke-miterlimit="8" fill="none" fill-rule="evenodd"/><path d="M643.188 396.643C627.126 414.878 597.009 418.402 575.919 404.516 572.496 402.263 569.439 399.622 566.831 396.664" stroke="#301901" stroke-width="8" stroke-miterlimit="8" fill="none" fill-rule="evenodd"/><path d="M712.188 396.643C696.126 414.878 666.009 418.402 644.919 404.516 641.496 402.263 638.439 399.622 635.831 396.664" stroke="#301901" stroke-width="8" stroke-miterlimit="8" fill="none" fill-rule="evenodd"/><path d="M786.188 396.643C770.126 414.878 740.009 418.402 718.919 404.516 715.496 402.263 712.439 399.622 709.831 396.664" stroke="#301901" stroke-width="8" stroke-miterlimit="8" fill="none" fill-rule="evenodd"/><rect x="478" y="224" width="37" height="314" stroke="#301901" stroke-width="8" stroke-miterlimit="8" fill="none"/><rect x="693" y="224" width="37" height="314" stroke="#301901" stroke-width="8" stroke-miterlimit="8" fill="none"/><path d="M497 120 497 223.717" stroke="#301901" stroke-width="8" stroke-miterlimit="8" fill="none" fill-rule="evenodd"/><path d="M711 120 711 223.717" stroke="#301901" stroke-width="8" stroke-miterlimit="8" fill="none" fill-rule="evenodd"/><path d="M496 120 586.217 120" stroke="#301901" stroke-width="8" stroke-miterlimit="8" fill="none" fill-rule="evenodd"/><path d="M633 120 711.217 120" stroke="#301901" stroke-width="8" stroke-miterlimit="8" fill="none" fill-rule="evenodd"/><path d="M586 84 586 156.859" stroke="#301901" stroke-width="8" stroke-miterlimit="8" fill="none" fill-rule="evenodd"/><path d="M633 102 633 142" stroke="#301901" stroke-width="8" stroke-miterlimit="8" fill="none" fill-rule="evenodd"/><path d="M531 87 547 87 547 71 547 71 547 87 563 87 563 88 547 88 547 104 547 104 547 88 531 88Z" stroke="#301901" stroke-width="8" stroke-miterlimit="8" fill="#301901" fill-rule="evenodd"/><text fill="#301901" font-family="Times New Roman,Times New Roman_MSFontService,sans-serif" font-weight="700" font-size="48" transform="translate(319.553 272)">anode<tspan font-size="48" x="439.732" y="0">cathode</tspan><tspan font-size="48" x="190.579" y="325">FeSO</tspan><tspan font-size="32" x="305.246" y="336">4</tspan><tspan font-size="48" x="333.246" y="325">(</tspan>aq<tspan font-size="48" x="399.913" y="325">)</tspan></text></g></svg>