<svg width="264" height="99" xmlns="http://www.w3.org/2000/svg" xmlns:xlink="http://www.w3.org/1999/xlink" overflow="hidden"><defs><clipPath id="clip0"><rect x="501" y="216" width="264" height="99"/></clipPath></defs><g clip-path="url(#clip0)" transform="translate(-501 -216)"><path d="M516.725 260.391 522.52 278.826 529.575 260.391ZM508.978 255.688 534.362 255.688 534.362 257.242 523.381 284.537 518.006 284.537 508.978 257.2Z" fill="#301901" fill-rule="evenodd"/><text fill="#000000" fill-opacity="0" font-family="Arial,Arial_MSFontService,sans-serif" font-size="28.8486" x="508.978" y="280.931">𝛁</text><path d="M550.659 260.559 560.171 270.049 569.682 260.559 571.655 262.512 562.249 272.086 571.676 281.618 569.577 283.718 560.171 274.123 550.47 283.634 548.518 281.66 558.113 272.086 548.56 262.659Z" fill="#301901" fill-rule="evenodd"/><text fill="#000000" fill-opacity="0" font-family="Arial,Arial_MSFontService,sans-serif" font-size="23.1587" x="548.518" y="280.823">×</text><path d="M587.049 255.688 607.877 255.688 607.877 262.365 605.001 262.365C604.539 261.035 604.147 260.136 603.825 259.667 603.503 259.198 603.118 258.827 602.67 258.554 602.222 258.281 601.459 258.145 600.382 258.145L595.804 258.145 595.804 268.223 598.576 268.223C599.192 268.223 599.675 268.135 600.025 267.96 600.375 267.785 600.665 267.495 600.896 267.089 601.127 266.683 601.347 266.053 601.557 265.199L603.93 265.199 603.93 273.724 601.557 273.724C601.361 272.912 601.144 272.293 600.906 271.866 600.669 271.439 600.385 271.134 600.056 270.952 599.727 270.77 599.234 270.679 598.576 270.679L595.804 270.679 595.804 281.891 600.361 281.891C600.851 281.891 601.263 281.86 601.599 281.797 601.935 281.734 602.236 281.625 602.502 281.471 602.768 281.317 603.024 281.107 603.269 280.841 603.513 280.576 603.73 280.289 603.919 279.981 604.108 279.673 604.308 279.267 604.518 278.763 604.728 278.259 604.959 277.566 605.211 276.684L608.087 276.684 607.688 284.348 587.049 284.348 587.049 282.962C587.805 282.766 588.319 282.542 588.592 282.29 588.865 282.038 589.051 281.706 589.149 281.293 589.247 280.88 589.296 280.142 589.296 279.078L589.296 260.979C589.296 259.915 589.25 259.177 589.159 258.764 589.068 258.351 588.883 258.019 588.603 257.767 588.323 257.515 587.805 257.284 587.049 257.074Z" fill="#301901" fill-rule="evenodd"/><text fill="#000000" fill-opacity="0" font-family="Arial,Arial_MSFontService,sans-serif" font-size="28.6597" x="587.049" y="280.765">𝐄</text><path d="M625.034 275.026 650.901 275.026 650.901 277.818 625.034 277.818ZM625.034 266.312 650.901 266.312 650.901 269.105 625.034 269.105Z" fill="#301901" fill-rule="evenodd"/><text fill="#000000" fill-opacity="0" font-family="Arial,Arial_MSFontService,sans-serif" font-size="11.5059" x="625.034" y="276.38">=</text><path d="M668.72 270.658 694.587 270.658 694.587 273.451 668.72 273.451Z" fill="#301901" fill-rule="evenodd"/><text fill="#000000" fill-opacity="0" font-family="Arial,Arial_MSFontService,sans-serif" font-size="2.79248" x="668.72" y="273.102">−</text><path d="M740.624 238.407 740.624 249.535C741.45 249.577 742.402 249.598 743.48 249.598 744.81 249.598 745.905 249.433 746.766 249.105 747.627 248.776 748.295 248.202 748.771 247.383 749.247 246.564 749.485 245.441 749.485 244.013 749.485 242.809 749.303 241.801 748.939 240.99 748.575 240.178 747.977 239.544 747.144 239.089 746.311 238.634 745.111 238.407 743.543 238.407ZM716.863 233.914C715.505 233.914 714.522 234.561 713.913 235.856 713.304 237.151 713 239.191 713 241.976 713 243.082 713.052 244.125 713.157 245.105 713.262 246.085 713.458 246.956 713.745 247.719 714.032 248.482 714.424 249.087 714.921 249.535 715.418 249.983 716.051 250.207 716.821 250.207 718.081 250.207 719.05 249.531 719.729 248.181 720.408 246.83 720.747 244.839 720.747 242.207 720.747 241.032 720.695 239.94 720.59 238.932 720.485 237.924 720.289 237.046 720.002 236.297 719.715 235.548 719.316 234.964 718.805 234.544 718.294 234.124 717.647 233.914 716.863 233.914ZM743.48 225.851C742.5 225.851 741.548 225.886 740.624 225.956L740.624 235.95 743.417 235.95C744.817 235.95 745.915 235.748 746.713 235.342 747.511 234.936 748.117 234.358 748.529 233.609 748.942 232.861 749.149 231.828 749.149 230.512 749.149 228.903 748.697 227.724 747.795 226.975 746.892 226.226 745.453 225.851 743.48 225.851ZM731.869 223.395 745.621 223.395C747.049 223.395 748.228 223.458 749.159 223.584 750.09 223.71 750.933 223.909 751.689 224.182 752.445 224.455 753.051 224.763 753.505 225.106 753.96 225.449 754.345 225.844 754.66 226.292 754.975 226.74 755.22 227.251 755.395 227.825 755.57 228.399 755.658 229.036 755.658 229.736 755.658 232.899 753.754 235.272 749.947 236.853L749.947 237.042C751.906 237.658 753.401 238.551 754.429 239.719 755.458 240.888 755.973 242.291 755.973 243.929 755.973 245.329 755.738 246.547 755.269 247.582 754.8 248.618 754.086 249.468 753.128 250.133 752.169 250.798 751.042 251.285 749.747 251.593 748.452 251.901 746.804 252.054 744.803 252.054L731.869 252.054 731.869 250.669C732.625 250.473 733.139 250.249 733.412 249.997 733.685 249.745 733.871 249.412 733.969 249 734.067 248.587 734.116 247.848 734.116 246.784L734.116 228.686C734.116 227.622 734.07 226.884 733.979 226.471 733.888 226.058 733.703 225.725 733.423 225.473 733.143 225.221 732.625 224.991 731.869 224.781ZM717.346 221.883C720.635 221.883 723.106 223.174 724.758 225.757 726.409 228.339 727.235 232.255 727.235 237.504 727.235 242.319 726.35 246.004 724.579 248.559 722.809 251.113 720.237 252.39 716.863 252.39 713.448 252.39 710.89 251.54 709.189 249.839 707.488 248.139 706.638 245.581 706.638 242.165 706.638 239.926 707.051 238.019 707.877 236.444 708.703 234.869 709.836 233.69 711.278 232.906 712.72 232.122 714.372 231.73 716.233 231.73 717.045 231.73 717.773 231.807 718.417 231.961 719.061 232.115 719.747 232.388 720.474 232.78L720.726 232.612C720.67 229.827 720.352 227.706 719.771 226.25 719.19 224.795 718.221 224.067 716.863 224.067 715.967 224.067 715.176 224.291 714.491 224.739 713.805 225.186 713.133 225.949 712.475 227.027L709.808 227.027 709.808 224.466C711.306 223.514 712.629 222.845 713.777 222.46 714.924 222.076 716.114 221.883 717.346 221.883Z" fill="#301901" fill-rule="evenodd"/><text fill="#000000" fill-opacity="0" font-family="Arial,Arial_MSFontService,sans-serif" font-size="30.5073" x="706.638" y="248.577">𝛛𝐁</text><path d="M723.03 294.747C721.672 294.747 720.689 295.395 720.08 296.689 719.471 297.984 719.167 300.024 719.167 302.81 719.167 303.915 719.219 304.958 719.324 305.938 719.429 306.918 719.625 307.789 719.912 308.552 720.199 309.315 720.591 309.92 721.088 310.368 721.585 310.816 722.218 311.04 722.988 311.04 724.248 311.04 725.217 310.365 725.896 309.014 726.575 307.663 726.914 305.672 726.914 303.041 726.914 301.865 726.862 300.773 726.757 299.765 726.652 298.757 726.456 297.879 726.169 297.13 725.882 296.381 725.483 295.797 724.972 295.377 724.461 294.957 723.814 294.747 723.03 294.747ZM740.471 286.811 745.489 286.811 745.489 292.06 751.473 292.06 751.473 294.684 745.489 294.684 745.489 304.153C745.489 305.735 745.563 306.904 745.71 307.66 745.857 308.416 746.105 308.972 746.455 309.329 746.805 309.686 747.239 309.864 747.757 309.864 748.443 309.864 749.031 309.745 749.521 309.507 750.01 309.27 750.458 308.969 750.864 308.605L752.187 310.368C750.955 311.418 749.836 312.156 748.828 312.583 747.82 313.01 746.756 313.224 745.636 313.224 743.551 313.224 741.993 312.66 740.965 311.534 739.936 310.407 739.421 308.703 739.421 306.421L739.421 294.684 736.797 294.684 736.797 293.235C737.651 293.095 738.281 292.886 738.687 292.606 739.093 292.326 739.407 291.951 739.631 291.482 739.855 291.013 740.034 290.401 740.167 289.645 740.3 288.889 740.401 287.944 740.471 286.811ZM723.513 282.716C726.802 282.716 729.273 284.008 730.924 286.59 732.576 289.173 733.402 293.089 733.402 298.338 733.402 303.153 732.517 306.837 730.746 309.392 728.975 311.947 726.403 313.224 723.03 313.224 719.615 313.224 717.056 312.373 715.356 310.673 713.655 308.972 712.805 306.414 712.805 302.999 712.805 300.759 713.218 298.852 714.044 297.277 714.869 295.703 716.003 294.523 717.445 293.739 718.887 292.956 720.538 292.564 722.4 292.564 723.212 292.564 723.94 292.641 724.584 292.795 725.227 292.949 725.913 293.221 726.641 293.613L726.893 293.445C726.837 290.66 726.519 288.539 725.938 287.084 725.357 285.628 724.388 284.9 723.03 284.9 722.134 284.9 721.343 285.124 720.657 285.572 719.971 286.02 719.3 286.783 718.642 287.86L715.975 287.86 715.975 285.299C717.473 284.347 718.796 283.679 719.943 283.294 721.091 282.909 722.281 282.716 723.513 282.716Z" fill="#301901" fill-rule="evenodd"/><text fill="#000000" fill-opacity="0" font-family="Arial,Arial_MSFontService,sans-serif" font-size="30.5073" x="712.805" y="309.41">𝛛𝐭</text><path d="M704.565 270.348 758.565 270.348 758.565 273.348 704.565 273.348Z" fill="#301901" fill-rule="evenodd"/></g></svg>