<svg width="618" height="646" xmlns="http://www.w3.org/2000/svg" xmlns:xlink="http://www.w3.org/1999/xlink" overflow="hidden"><defs><clipPath id="clip0"><rect x="612" y="38" width="618" height="646"/></clipPath></defs><g clip-path="url(#clip0)" transform="translate(-612 -38)"><path d="M987.144 673.999C944.618 674.323 910.08 534.227 910 361.086 909.92 187.946 944.33 47.3244 986.856 47.0004 987.866 46.9927 988.876 47.066 989.886 47.2201" stroke="#301901" stroke-width="16" stroke-miterlimit="8" fill="none" fill-rule="evenodd"/><path d="M946 359.5C946 334.923 966.595 315 992 315 1017.41 315 1038 334.923 1038 359.5 1038 384.077 1017.41 404 992 404 966.595 404 946 384.077 946 359.5Z" stroke="#301901" stroke-width="8" stroke-miterlimit="8" fill="#F5E283" fill-rule="evenodd"/><path d="M977 360 993 360 993 344 993 344 993 360 1009 360 1009 361 993 361 993 377 993 377 993 361 977 361Z" stroke="#301901" stroke-width="8" stroke-miterlimit="8" fill="#301901" fill-rule="evenodd"/><path d="M910 359.5C910 186.359 946.713 46 992 46 1037.29 46 1074 186.359 1074 359.5 1074 532.641 1037.29 673 992 673 946.713 673 910 532.641 910 359.5Z" stroke="#301901" stroke-width="8" stroke-miterlimit="8" fill="none" fill-rule="evenodd"/><path d="M876 509.5C876 484.923 896.371 465 921.5 465 946.629 465 967 484.923 967 509.5 967 534.077 946.629 554 921.5 554 896.371 554 876 534.077 876 509.5Z" stroke="#301901" stroke-width="8" stroke-miterlimit="8" fill="#F5E283" fill-rule="evenodd"/><rect x="900.555" y="505.854" width="41.8893" height="7.29117" stroke="#301901" stroke-width="8" stroke-miterlimit="8" fill="#301901"/><path d="M7.79331-1.80673 11.632 14.7513-3.95464 18.3648-7.79331 1.80673ZM25.4119 3.34455 12.8723 55.5246-21.348 14.1849Z" fill="#301901" transform="matrix(1 0 0 -1 921 192.525)"/><path d="M874 376 718.821 376 718.821 391 651 361 718.821 331 718.821 346 874 346Z" stroke="#301901" stroke-width="8" stroke-miterlimit="8" fill="#301901" fill-rule="evenodd"/><text fill="#301901" font-family="Times New Roman,Times New Roman_MSFontService,sans-serif" font-weight="700" font-size="80" transform="translate(842.671 187)">I<tspan font-size="80" x="-182.255" y="103">µ</tspan><tspan font-size="80" x="-75.0643" y="302">N</tspan><tspan font-size="80" x="293.573" y="298">S</tspan></text></g></svg>