<svg width="1126" height="66" xmlns="http://www.w3.org/2000/svg" xmlns:xlink="http://www.w3.org/1999/xlink" overflow="hidden"><defs><clipPath id="clip0"><rect x="67" y="238" width="1126" height="66"/></clipPath></defs><g clip-path="url(#clip0)" transform="translate(-67 -238)"><text fill="#301901" font-family="Cambria Math,Cambria Math_MSFontService,sans-serif" font-weight="400" font-size="24" transform="translate(75.6582 281)">𝟖<tspan font-size="24" x="14.3333" y="0"> </tspan><tspan font-size="24" x="19.6667" y="0">𝐠</tspan> <tspan font-size="24" x="38" y="0">𝐅𝐞</tspan><tspan font-size="24" x="70" y="0">×</tspan><tspan font-size="24" x="110.5" y="-19">𝟏</tspan><tspan font-size="24" x="124.833" y="-19"> </tspan><tspan font-size="24" x="130.167" y="-19">𝐦𝐨𝐥</tspan> 𝐅𝐞<tspan font-size="24" x="92.5" y="16">𝟓𝟓</tspan>.<tspan font-size="24" x="130.167" y="16">𝟖𝟒𝟓</tspan> 𝐠<tspan font-size="24" x="191.5" y="16"> </tspan><tspan font-size="24" x="196.833" y="16">𝐅𝐞</tspan></text><path d="M168.478 272.609 299.478 272.609 299.478 274.609 168.478 274.609Z" fill="#301901" fill-rule="evenodd"/><text fill="#301901" font-family="Cambria Math,Cambria Math_MSFontService,sans-serif" font-weight="400" font-size="24" transform="translate(304.492 281)">×<tspan font-size="24" x="22.5" y="-19">𝟐</tspan><tspan font-size="24" x="36.8333" y="-19"> </tspan><tspan font-size="24" x="42.1667" y="-19">𝐦𝐨𝐥</tspan><tspan font-size="24" x="85.5" y="-19"> </tspan><tspan font-size="24" x="90.8333" y="-19">𝐞</tspan><tspan font-size="18" x="104" y="-27">−</tspan><tspan font-size="24" x="22.58" y="16">𝟏</tspan><tspan font-size="24" x="36.9133" y="16"> </tspan><tspan font-size="24" x="42.2467" y="16">𝐦𝐨𝐥</tspan><tspan font-size="24" x="85.58" y="16"> </tspan><tspan font-size="24" x="90.9133" y="16">𝐅𝐞</tspan></text><path d="M327.478 272.609 422.478 272.609 422.478 274.609 327.478 274.609Z" fill="#301901" fill-rule="evenodd"/><text fill="#301901" font-family="Cambria Math,Cambria Math_MSFontService,sans-serif" font-weight="400" font-size="24" transform="translate(427.485 281)">×<tspan font-size="24" x="22.5" y="-19">𝟔</tspan><tspan font-size="24" x="36.8333" y="-19">.</tspan><tspan font-size="24" x="45.8333" y="-19">𝟎𝟐𝟐</tspan> <tspan font-size="24" x="99.5" y="-19">×</tspan><tspan font-size="24" x="122" y="-19">𝟏𝟎</tspan><tspan font-size="18" x="150.667" y="-27">𝟐𝟑</tspan><tspan font-size="24" x="172.66" y="-19"> </tspan><tspan font-size="24" x="177.993" y="-19">𝐞</tspan><tspan font-size="18" x="191.16" y="-27">−</tspan><tspan font-size="24" x="66.08" y="16">𝟏</tspan><tspan font-size="24" x="80.4133" y="16"> </tspan><tspan font-size="24" x="85.7467" y="16">𝐦𝐨𝐥</tspan><tspan font-size="24" x="129.08" y="16"> </tspan><tspan font-size="24" x="134.413" y="16">𝐞</tspan><tspan font-size="18" x="147.58" y="8">−</tspan></text><path d="M450.478 272.609 632.478 272.609 632.478 274.609 450.478 274.609Z" fill="#301901" fill-rule="evenodd"/><text fill="#301901" font-family="Cambria Math,Cambria Math_MSFontService,sans-serif" font-weight="400" font-size="24" transform="translate(637.638 281)">×<tspan font-size="24" x="22.5" y="-19">𝟏</tspan><tspan font-size="24" x="36.8333" y="-19">.</tspan><tspan font-size="24" x="45.8333" y="-19">𝟔𝟎𝟐</tspan><tspan font-size="24" x="94.1666" y="-19">×</tspan><tspan font-size="24" x="116.667" y="-19">𝟏𝟎</tspan><tspan font-size="18" x="145.333" y="-27">−</tspan><tspan font-size="18" x="158" y="-27">𝟏𝟗</tspan><tspan font-size="24" x="179.993" y="-19"> </tspan><tspan font-size="24" x="185.327" y="-19">𝐂</tspan><tspan font-size="24" x="87.7466" y="16">𝟏</tspan><tspan font-size="24" x="102.08" y="16"> </tspan><tspan font-size="24" x="107.413" y="16">𝐞</tspan><tspan font-size="18" x="120.58" y="8">−</tspan></text><path d="M660.478 272.609 837.478 272.609 837.478 274.609 660.478 274.609Z" fill="#301901" fill-rule="evenodd"/><text fill="#301901" font-family="Cambria Math,Cambria Math_MSFontService,sans-serif" font-weight="400" font-size="24" transform="translate(842.465 281)">×<tspan font-size="24" x="22.5" y="-19">𝟏</tspan><tspan font-size="24" x="36.8333" y="-19"> </tspan><tspan font-size="24" x="42.1667" y="-19">𝐀</tspan><tspan font-size="24" x="58.5" y="-19"> </tspan><tspan font-size="24" x="63.8333" y="-19">𝐬</tspan><tspan font-size="24" x="31.9133" y="16">𝟏</tspan><tspan font-size="24" x="46.2466" y="16"> </tspan><tspan font-size="24" x="51.58" y="16">𝐂</tspan></text><path d="M864.478 272.609 917.478 272.609 917.478 274.609 864.478 274.609Z" fill="#301901" fill-rule="evenodd"/><text fill="#301901" font-family="Cambria Math,Cambria Math_MSFontService,sans-serif" font-weight="400" font-size="24" transform="translate(922.965 281)">×<tspan font-size="24" x="36.58" y="-19">𝟏</tspan><tspan font-size="24" x="50.9133" y="-19"> </tspan><tspan font-size="24" x="56.2466" y="-19">𝐡𝐫</tspan><tspan font-size="24" x="22.5" y="16">𝟑𝟔𝟎𝟎</tspan><tspan font-size="24" x="79.8333" y="16"> </tspan><tspan font-size="24" x="85.1667" y="16">𝐬</tspan></text><path d="M945.478 272.609 1019.48 272.609 1019.48 274.609 945.478 274.609Z" fill="#301901" fill-rule="evenodd"/><text fill="#301901" font-family="Cambria Math,Cambria Math_MSFontService,sans-serif" font-weight="400" font-size="24" transform="translate(1024.8 281)">×<tspan font-size="24" x="38.2467" y="-19">𝟏</tspan><tspan font-size="24" x="22.5" y="16">𝟑</tspan><tspan font-size="24" x="36.8334" y="16"> </tspan><tspan font-size="24" x="42.1667" y="16">𝐡𝐫</tspan></text><path d="M1047.48 272.609 1093.48 272.609 1093.48 274.609 1047.48 274.609Z" fill="#301901" fill-rule="evenodd"/><text fill="#301901" font-family="Cambria Math,Cambria Math_MSFontService,sans-serif" font-weight="400" font-size="24" transform="translate(1099.8 281)">=<tspan font-size="24" x="24.6667" y="0">𝟐</tspan><tspan font-size="24" x="39" y="0">.</tspan><tspan font-size="24" x="48" y="0">𝟓</tspan><tspan font-size="24" x="62.3334" y="0"> </tspan><tspan font-size="24" x="67.6667" y="0">𝐀</tspan></text></g></svg>