<svg width="437" height="231" xmlns="http://www.w3.org/2000/svg" xmlns:xlink="http://www.w3.org/1999/xlink" overflow="hidden"><defs><clipPath id="clip0"><rect x="49" y="172" width="437" height="231"/></clipPath></defs><g clip-path="url(#clip0)" transform="translate(-49 -172)"><text fill="#301901" font-family="Cambria Math,Cambria Math_MSFontService,sans-serif" font-weight="400" font-size="24" transform="translate(64.2461 211)">𝟖<tspan font-size="24" x="14.3333" y="0"> </tspan><tspan font-size="24" x="19.6667" y="0">𝐠</tspan> <tspan font-size="24" x="38" y="0">𝐅𝐞</tspan><tspan font-size="24" x="70" y="0">×</tspan><tspan font-size="24" x="110.5" y="-19">𝟏</tspan><tspan font-size="24" x="124.833" y="-19"> </tspan>𝐦𝐨𝐥 <tspan font-size="24" x="178.833" y="-19">𝐅𝐞</tspan><tspan font-size="24" x="92.5" y="16">𝟓𝟓</tspan>.<tspan font-size="24" x="130.167" y="16">𝟖𝟒𝟓</tspan> 𝐠 𝐅𝐞</text><path d="M156.826 202.522 222.326 202.522 287.826 202.522 287.826 204.522 222.326 204.522 156.826 204.522Z" fill="#301901" fill-rule="evenodd"/><text fill="#301901" font-family="Cambria Math,Cambria Math_MSFontService,sans-serif" font-weight="400" font-size="24" transform="translate(293.079 211)">×<tspan font-size="24" x="22.5" y="-19">𝟐</tspan><tspan font-size="24" x="36.8333" y="-19"> </tspan><tspan font-size="24" x="42.1667" y="-19">𝐦𝐨𝐥</tspan><tspan font-size="24" x="85.5" y="-19"> </tspan><tspan font-size="24" x="90.8333" y="-19">𝐞</tspan><tspan font-size="18" x="104" y="-27">−</tspan><tspan font-size="24" x="22.58" y="16">𝟏</tspan><tspan font-size="24" x="36.9134" y="16"> </tspan><tspan font-size="24" x="42.2467" y="16">𝐦𝐨𝐥</tspan><tspan font-size="24" x="85.58" y="16"> </tspan><tspan font-size="24" x="90.9134" y="16">𝐅𝐞</tspan></text><path d="M315.826 202.522 363.326 202.522 410.826 202.522 410.826 204.522 363.326 204.522 315.826 204.522Z" fill="#301901" fill-rule="evenodd"/><text fill="#301901" font-family="Cambria Math,Cambria Math_MSFontService,sans-serif" font-weight="400" font-size="24" transform="translate(62.2513 299)">×<tspan font-size="24" x="22.5" y="-18">𝟔</tspan><tspan font-size="24" x="36.8333" y="-18">.</tspan><tspan font-size="24" x="45.8333" y="-18">𝟎𝟐𝟐</tspan><tspan font-size="24" x="88.8333" y="-18"> </tspan><tspan font-size="24" x="99.5" y="-18">×</tspan><tspan font-size="24" x="122" y="-18">𝟏𝟎</tspan><tspan font-size="18" x="150.667" y="-27">𝟐𝟑</tspan><tspan font-size="24" x="172.66" y="-18"> </tspan><tspan font-size="24" x="177.993" y="-18">𝐞</tspan><tspan font-size="18" x="191.16" y="-27">−</tspan><tspan font-size="24" x="66.08" y="16">𝟏</tspan><tspan font-size="24" x="80.4133" y="16"> </tspan><tspan font-size="24" x="85.7467" y="16">𝐦𝐨𝐥</tspan><tspan font-size="24" x="129.08" y="16"> </tspan><tspan font-size="24" x="134.413" y="16">𝐞</tspan><tspan font-size="18" x="147.58" y="9">−</tspan></text><path d="M84.9913 291.141 175.991 291.141 266.991 291.141 266.991 293.141 175.991 293.141 84.9913 293.141Z" fill="#301901" fill-rule="evenodd"/><text fill="#301901" font-family="Cambria Math,Cambria Math_MSFontService,sans-serif" font-weight="400" font-size="24" transform="translate(272.405 299)">×<tspan font-size="24" x="22.5" y="-18">𝟏</tspan><tspan font-size="24" x="36.8333" y="-18">.</tspan><tspan font-size="24" x="45.8333" y="-18">𝟔𝟎𝟐</tspan><tspan font-size="24" x="94.1667" y="-18">×</tspan><tspan font-size="24" x="116.667" y="-18">𝟏𝟎</tspan><tspan font-size="18" x="145.333" y="-27">−</tspan><tspan font-size="18" x="158" y="-27">𝟏𝟗</tspan><tspan font-size="24" x="179.993" y="-18"> </tspan><tspan font-size="24" x="185.327" y="-18">𝐂</tspan><tspan font-size="24" x="87.7467" y="16">𝟏</tspan><tspan font-size="24" x="102.08" y="16"> </tspan><tspan font-size="24" x="107.413" y="16">𝐞</tspan><tspan font-size="18" x="120.58" y="9">−</tspan></text><path d="M294.991 291.141 383.491 291.141 471.991 291.141 471.991 293.141 383.491 293.141 294.991 293.141Z" fill="#301901" fill-rule="evenodd"/><text fill="#301901" font-family="Cambria Math,Cambria Math_MSFontService,sans-serif" font-weight="400" font-size="24" transform="translate(62.2486 380)">×<tspan font-size="24" x="22.5" y="-18">𝟏</tspan> <tspan font-size="24" x="42.1667" y="-18">𝐀</tspan> <tspan font-size="24" x="63.8333" y="-18">𝐬</tspan><tspan font-size="24" x="31.9133" y="16">𝟏</tspan> <tspan font-size="24" x="51.58" y="16">𝐂</tspan></text><path d="M84.3352 372.104 137.335 372.104 137.335 374.104 84.3352 374.104Z" fill="#301901" fill-rule="evenodd"/><text fill="#301901" font-family="Cambria Math,Cambria Math_MSFontService,sans-serif" font-weight="400" font-size="24" transform="translate(142.749 380)">×<tspan font-size="24" x="36.58" y="-18">𝟏</tspan><tspan font-size="24" x="50.9133" y="-18"> </tspan><tspan font-size="24" x="56.2467" y="-18">𝐡𝐫</tspan><tspan font-size="24" x="22.5" y="16">𝟑𝟔𝟎𝟎</tspan><tspan font-size="24" x="79.8333" y="16"> </tspan><tspan font-size="24" x="85.1667" y="16">𝐬</tspan></text><path d="M165.335 372.104 239.335 372.104 239.335 374.104 165.335 374.104Z" fill="#301901" fill-rule="evenodd"/><text fill="#301901" font-family="Cambria Math,Cambria Math_MSFontService,sans-serif" font-weight="400" font-size="24" transform="translate(244.582 380)">×<tspan font-size="24" x="38.2467" y="-18">𝟏</tspan><tspan font-size="24" x="22.5" y="16">𝟑</tspan><tspan font-size="24" x="36.8333" y="16"> </tspan><tspan font-size="24" x="42.1667" y="16">𝐡𝐫</tspan></text><path d="M267.335 372.104 313.335 372.104 313.335 374.104 267.335 374.104Z" fill="#301901" fill-rule="evenodd"/><text fill="#301901" font-family="Cambria Math,Cambria Math_MSFontService,sans-serif" font-weight="400" font-size="24" transform="translate(319.582 380)">=<tspan font-size="24" x="24.6667" y="0">𝟐</tspan><tspan font-size="24" x="39" y="0">.</tspan><tspan font-size="24" x="48" y="0">𝟓</tspan><tspan font-size="24" x="62.3333" y="0"> </tspan><tspan font-size="24" x="67.6667" y="0">𝐀</tspan></text></g></svg>